<?xml version="1.0" encoding="utf-8"?>
<!-- Generator: Adobe Illustrator 21.0.2, SVG Export Plug-In . SVG Version: 6.00 Build 0)  -->
<svg version="1.1" id="Layer_1" xmlns="http://www.w3.org/2000/svg" xmlns:xlink="http://www.w3.org/1999/xlink" x="0px" y="0px"
	 viewBox="0 0 1290 240" style="enable-background:new 0 0 1290 240;" xml:space="preserve">
<style type="text/css">
	.st0{fill:#88989D;}
	.st1{fill:#0099CC;}
	.st2{fill-rule:evenodd;clip-rule:evenodd;fill:#0099CC;}
	.st3{fill:#637479;}
	.st4{fill:#3B8DB7;}
	.st5{fill:#63747A;}
</style>
<g id="Layer_1">
	<g>
		<g>
			<g>
				<path class="st0" d="M130.8,29.8c-7.5,0-14.7,0.8-21.7,2.3v16.1c7-1.8,14.2-2.7,21.7-2.7c24.3,0,46.2,9.8,62.2,25.7
					c15.9,15.9,25.7,37.9,25.7,62.2c0,24.3-9.8,46.2-25.7,62.2c-15.9,15.9-37.9,25.7-62.2,25.7c-24.3,0-46.2-9.8-62.2-25.7
					c-15.9-15.9-25.7-37.9-25.7-62.2c0-7.9,1-15.5,3-22.8H29.8c-1.7,7.3-2.5,15-2.5,22.8c0,28.6,11.6,54.5,30.3,73.2
					c18.7,18.7,44.6,30.3,73.2,30.3c28.6,0,54.5-11.6,73.2-30.3c18.7-18.7,30.3-44.6,30.3-73.2c0-28.6-11.6-54.5-30.3-73.2
					C185.3,41.4,159.4,29.8,130.8,29.8L130.8,29.8z"/>
			</g>
			<g>
				<path class="st1" d="M91.7,37.4c-12.9,5.3-24.4,13-34.1,22.7c-9.6,9.6-17.3,21-22.5,33.7h17.2c4.2-8.4,9.8-16,16.4-22.6
					c6.7-6.7,14.5-12.3,23-16.6V37.4L91.7,37.4z"/>
			</g>
			<g>
				<path class="st1" d="M91.7,3.1v16.4c-17.5,6-33.2,15.9-46,28.7C33.1,60.9,23.2,76.5,17.2,93.8H0.7c6.6-21.6,18.4-41,34-56.6
					C50.4,21.5,69.9,9.6,91.7,3.1L91.7,3.1z"/>
			</g>
			<g>
				<path class="st2" d="M82.1,90.7c-2,17.1-5.4,35.7-5.4,53v20c0,7.5,5.7,13.8,13,14.7v8.8c0,4.6,3.8,8.4,8.4,8.4l0,0
					c4.6,0,8.4-3.8,8.4-8.4v-8.7h49.2v8.7c0,4.6,3.8,8.4,8.4,8.4l0,0c4.6,0,8.4-3.8,8.4-8.4v-8.8c7.2-1,12.7-7.2,12.7-14.7V144
					c0-17.4-3.5-36-5.5-53.3c-0.5-4.5-2.6-8.5-5.9-10.9c-4.8-4.9-21.4-8.6-42.8-8.6c-16.4,0-31,2.4-38.6,5.9
					C87,79.4,82.8,84.9,82.1,90.7L82.1,90.7z M98,149.6c-4.7,0-8.4,3.8-8.4,8.4c0,4.7,3.8,8.4,8.4,8.4c4.7,0,8.4-3.8,8.4-8.4
					C106.4,153.4,102.6,149.6,98,149.6L98,149.6z M163.9,149.6c-4.7,0-8.4,3.8-8.4,8.4c0,4.7,3.8,8.4,8.4,8.4c4.7,0,8.4-3.8,8.4-8.4
					C172.4,153.4,168.6,149.6,163.9,149.6L163.9,149.6z M154.1,77.8h-46.6c-2.6,0-4.7,2.1-4.7,4.7l0,0c0,2.6,2.1,4.7,4.7,4.7h46.6
					c2.6,0,4.7-2.1,4.7-4.7l0,0C158.8,79.9,156.7,77.8,154.1,77.8L154.1,77.8z M161.4,92.3h-61.3c-5.2,0-9,4.3-9.5,9.5l-2.1,19.9
					c-0.6,5.2,5.4,9.5,10.6,9.5h63.2c5.2,0,11.4-4.3,10.8-9.5l-2.2-19.9C170.3,96.6,166.6,92.3,161.4,92.3L161.4,92.3z"/>
			</g>
			<g>
				<g>
					<path class="st3" d="M275.4,66.2c5.9-2.4,13.8-4.4,21.2-4.4c14.3,0,28.7,6.2,28.7,26.4v27.2c0,19.5-15,25.9-29.7,25.9
						c-7.6,0-15.5-1.6-21.9-5.2l-0.2,4h-7.8V32.5h9.7L275.4,66.2z M315.6,88.8c0-14.4-8.9-19.2-20.5-19.2c-7.4,0-15,1.8-19.7,4v55.6
						c5.3,2.7,12.2,4.3,19,4.3c12,0,21.2-5.4,21.3-18L315.6,88.8z"/>
					<path class="st3" d="M392.5,140.1l-0.2-4c-6.6,3.6-14.5,5.2-22,5.2c-15.2,0-29.6-6.7-29.6-26V63.1h9.7v51.7
						c0,13.4,9.1,18.7,21.1,18.7c6.8,0,13.7-1.6,19.1-4.3V63.1h9.7v77H392.5z"/>
					<path class="st3" d="M423.3,119.6c0.7,7.4,6.4,14.4,19.5,14.4c11.3,0,18.5-6.2,18.5-14.3c0-9.8-9.7-12.7-20.5-15.8
						c-12.8-3.4-24.9-7.4-24.9-21c0-11,7.5-21.5,26.8-21.5c19.2,0,26.7,10.4,26.7,21.6h-9.3c0-6.2-4.6-13.5-17.4-13.5
						c-12.7,0-17.4,7.3-17.4,13.5c0,7.6,8.3,10.6,18.8,13.5c14.6,3.8,26.8,8.7,26.8,23.2c0,12.1-9.4,22.4-27.6,22.4
						c-19.6,0-29.1-10.2-29.6-22.5L423.3,119.6z"/>
					<path class="st3" d="M486.7,140.1V32.5h9.7v107.5H486.7z"/>
					<path class="st3" d="M525.9,36.4c0,3-1.9,5.5-5.3,5.5c-3.2,0-5.5-2.3-5.5-5.5c0-3.4,2.5-5.3,5.5-5.3
						C523.8,31.1,525.9,33.2,525.9,36.4z M515.7,140.1v-77h9.7v77H515.7z"/>
					<path class="st3" d="M552.7,67.1c6.6-3.6,14.6-5.3,22.1-5.3c15.2,0,29.5,6.8,29.5,26.1v52.2h-9.7V88.3
						c0-13.4-9.1-18.7-21.1-18.7c-6.8,0-13.7,1.6-19.1,4.3v66.1h-9.7v-77h7.8L552.7,67.1z"/>
					<path class="st3" d="M633.9,36.4c0,3-1.9,5.5-5.3,5.5c-3.2,0-5.5-2.3-5.5-5.5c0-3.4,2.5-5.3,5.5-5.3
						C631.8,31.1,633.9,33.2,633.9,36.4z M623.7,140.1v-77h9.7v77H623.7z"/>
					<path class="st3" d="M650.1,89.6c0-17.7,11.5-27.8,29.9-27.8c18.6,0,28.2,10.7,28.2,27.5v15.6h-48.6v12.7
						c0,11.6,7.3,16.5,18.7,16.5c8.1,0,15.2-2.2,21-6.2l5.3,4.9c-6.7,5.5-15.5,9-27,9c-17.8,0-27.5-9.7-27.5-25.1V89.6z M699,88.9
						c0-14.8-9.8-19.3-19.2-19.3c-10.1,0-20,5-20,19.6v8.9H699V88.9z"/>
					<path class="st3" d="M731.6,67.1c6.6-3.6,14.6-5.3,22.1-5.3c15.2,0,29.5,6.8,29.5,26.1v52.2h-9.7V88.3
						c0-13.4-9.1-18.7-21.1-18.7c-6.8,0-13.7,1.6-19.1,4.3v66.1h-9.7v-77h7.8L731.6,67.1z"/>
					<path class="st4" d="M806.1,119.6c0.7,7.4,6.4,14.4,19.5,14.4c11.3,0,18.5-6.2,18.5-14.3c0-9.8-9.7-12.7-20.5-15.8
						c-12.8-3.4-24.9-7.4-24.9-21c0-11,7.5-21.5,26.8-21.5c19.2,0,26.7,10.4,26.7,21.6H843c0-6.2-4.6-13.5-17.4-13.5
						c-12.7,0-17.4,7.3-17.4,13.5c0,7.6,8.3,10.6,18.8,13.5c14.6,3.8,26.8,8.7,26.8,23.2c0,12.1-9.4,22.4-27.6,22.4
						c-19.6,0-29.1-10.2-29.6-22.5L806.1,119.6z"/>
					<path class="st4" d="M919.7,140.1l-0.2-4c-6.6,3.6-14.5,5.2-22,5.2c-15.2,0-29.6-6.7-29.6-26V63.1h9.7v51.7
						c0,13.4,9.1,18.7,21.1,18.7c6.8,0,13.7-1.6,19.1-4.3V63.1h9.7v77H919.7z"/>
					<path class="st4" d="M942.9,93c0-20.6,12.2-31.3,30-31.3c9.8,0,17.3,3.7,23.1,9.5l-7.2,3.9c-4.8-3.5-10.3-5.3-15.9-5.3
						c-11.7,0-20.3,7.2-20.3,23.1v17.3c0,15.9,8.6,23.1,20.3,23.1c5.6,0,11.1-1.8,15.9-5.3l7.2,3.9c-5.8,5.9-13.3,9.5-23.1,9.5
						c-17.8,0-30-10.6-30-31.2V93z"/>
					<path class="st4" d="M1022.1,66.4c6.2-3.1,13.6-4.6,20.6-4.6c14.7,0,29.2,6.3,29.2,26.1v52.2h-9.7V88.3
						c0-13.5-8.9-18.8-20.8-18.8c-6.9,0-14,1.7-19.5,4.4v66.1h-9.7V32.5h9.7L1022.1,66.4z"/>
					<path class="st4" d="M1087.3,89.6c0-17.7,11.5-27.8,29.9-27.8c18.6,0,28.2,10.7,28.2,27.5v15.6h-48.6v12.7
						c0,11.6,7.3,16.5,18.7,16.5c8.1,0,15.2-2.2,21-6.2l5.3,4.9c-6.7,5.5-15.5,9-27,9c-17.8,0-27.5-9.7-27.5-25.1V89.6z
						 M1136.2,88.9c0-14.8-9.8-19.3-19.2-19.3c-10.1,0-20,5-20,19.6v8.9h39.2V88.9z"/>
				</g>
			</g>
		</g>
		<g>
			<g>
				<path class="st5" d="M278.1,168.4c9.4,0,14.1,5.9,14.1,13.7v15c0,9.4-6.2,12.2-13,12.2h-14.7v-40.8H278.1z M268.4,205.8h10.9
					c5.3,0,9.2-1.9,9.2-8.7v-15c0-6.1-3.4-10.2-10.3-10.2h-9.8V205.8z"/>
				<path class="st5" d="M299.5,190c0-6.7,4.4-10.6,11.3-10.6c7.1,0,10.7,4.1,10.7,10.4v5.9h-18.4v4.8c0,4.4,2.8,6.3,7.1,6.3
					c3.1,0,5.8-0.8,8-2.3l2,1.9c-2.5,2.1-5.9,3.4-10.2,3.4c-6.8,0-10.4-3.7-10.4-9.5V190z M318.1,189.8c0-5.6-3.7-7.3-7.3-7.3
					c-3.9,0-7.6,1.9-7.6,7.4v3.4h14.9V189.8z"/>
				<path class="st5" d="M331.4,184.1c1.8-3.2,4.7-4.6,8.9-4.6c1.2,0,2.3,0.1,3.3,0.4l-0.2,3.1c-1.4-0.3-2.7-0.5-3.9-0.4
					c-4.9,0.1-7.6,3.1-7.6,8.5v18.2h-3.7v-29.4h3L331.4,184.1z"/>
				<path class="st5" d="M371.3,171.8v15.3h18.9v3.4h-18.9v18.7h-3.8v-40.8h24.6v3.4H371.3z"/>
				<path class="st5" d="M397.9,190c0-6.7,4.4-10.6,11.3-10.6c7.1,0,10.7,4.1,10.7,10.4v5.9h-18.4v4.8c0,4.4,2.8,6.3,7.1,6.3
					c3.1,0,5.8-0.8,8-2.3l2,1.9c-2.5,2.1-5.9,3.4-10.2,3.4c-6.8,0-10.4-3.7-10.4-9.5V190z M416.4,189.8c0-5.6-3.7-7.3-7.3-7.3
					c-3.9,0-7.6,1.9-7.6,7.4v3.4h14.9V189.8z"/>
				<path class="st5" d="M429.8,184.1c1.8-3.2,4.7-4.6,8.9-4.6c1.2,0,2.3,0.1,3.3,0.4l-0.2,3.1c-1.4-0.3-2.7-0.5-3.9-0.4
					c-4.9,0.1-7.6,3.1-7.6,8.5v18.2h-3.7v-29.4h3L429.8,184.1z"/>
				<path class="st5" d="M450.3,181.5c2.5-1.4,5.5-2,8.4-2c5.8,0,11.2,2.6,11.2,9.9v19.8h-3.7v-19.6c0-5.1-3.5-7.1-8-7.1
					c-2.6,0-5.2,0.6-7.3,1.6v25.1h-3.7V180h3L450.3,181.5z"/>
				<path class="st5" d="M481.3,181.2c2.2-0.9,5.2-1.7,8-1.7c5.4,0,10.9,2.3,10.9,10v10.3c0,7.4-5.7,9.8-11.3,9.8
					c-2.9,0-5.9-0.6-8.3-2l-0.1,1.5h-3v-40.8h3.7L481.3,181.2z M496.5,189.7c0-5.5-3.4-7.3-7.8-7.3c-2.8,0-5.7,0.7-7.5,1.5v21.1
					c2,1,4.6,1.6,7.2,1.6c4.5,0,8-2.1,8.1-6.8V189.7z"/>
				<path class="st5" d="M526.6,209.2l-0.1-1.5c-2.5,1.4-5.5,2-8.3,2c-5.8,0-11.2-2.6-11.2-9.9V180h3.7v19.6c0,5.1,3.5,7.1,8,7.1
					c2.6,0,5.2-0.6,7.3-1.6V180h3.7v29.2H526.6z"/>
				<path class="st5" d="M539.2,201.4c0.3,2.8,2.4,5.5,7.4,5.5c4.3,0,7-2.3,7-5.4c0-3.7-3.7-4.8-7.8-6c-4.8-1.3-9.4-2.8-9.4-8
					c0-4.2,2.8-8.2,10.2-8.2c7.3,0,10.1,4,10.1,8.2h-3.5c0-2.3-1.7-5.1-6.6-5.1c-4.8,0-6.6,2.8-6.6,5.1c0,2.9,3.1,4,7.1,5.1
					c5.5,1.4,10.2,3.3,10.2,8.8c0,4.6-3.5,8.5-10.5,8.5c-7.4,0-11-3.9-11.2-8.5L539.2,201.4z"/>
				<path class="st5" d="M585.8,169.9c0,1.1-0.7,2.1-2,2.1c-1.2,0-2.1-0.9-2.1-2.1c0-1.3,0.9-2,2.1-2
					C585,167.8,585.8,168.7,585.8,169.9z M581.9,209.2V180h3.7v29.2H581.9z"/>
				<path class="st5" d="M596.9,181.5c2.5-1.3,5.4-2,8-2c3.4,0,6.4,1.1,8,3.1c3.1-1.8,5.8-3.1,9.1-3.1c5.2,0,9.4,3.4,9.4,9.9v19.8
					h-3.6v-19.5c0-5-2.5-7.2-6.3-7.2c-2.1,0-3.2,0.3-7.4,2.3c0.5,1,0.5,3.6,0.5,5.2v19.3H611v-20.8c0-4.2-2.7-5.8-6.5-5.8
					c-2.5,0-5.2,0.7-6.9,1.6v25.1h-3.6V180h2.9L596.9,181.5z"/>
				<path class="st5" d="M666.2,209.2l-12.6-40.8h3.9l11.3,36.6l11.3-36.6h3.9l-12.5,40.8H666.2z"/>
				<path class="st5" d="M687,190c0-6.7,4.4-10.6,11.3-10.6c7.1,0,10.7,4.1,10.7,10.4v5.9h-18.4v4.8c0,4.4,2.8,6.3,7.1,6.3
					c3.1,0,5.8-0.8,8-2.3l2,1.9c-2.5,2.1-5.9,3.4-10.2,3.4c-6.8,0-10.4-3.7-10.4-9.5V190z M705.6,189.8c0-5.6-3.7-7.3-7.3-7.3
					c-3.9,0-7.6,1.9-7.6,7.4v3.4h14.9V189.8z"/>
				<path class="st5" d="M718.9,184.1c1.8-3.2,4.7-4.6,8.9-4.6c1.2,0,2.3,0.1,3.3,0.4l-0.2,3.1c-1.4-0.3-2.7-0.5-3.9-0.4
					c-4.9,0.1-7.6,3.1-7.6,8.5v18.2h-3.7v-29.4h3L718.9,184.1z"/>
				<path class="st5" d="M735.3,189.4c0-7.4,5.7-9.9,11.3-9.9c2.9,0,5.9,0.7,8.3,2l0.1-1.5h3v31.3c0,6.5-4.2,9.4-9.9,9.4
					c-3.8,0-7.3-1.1-10.3-3l1.5-2.2c2.4,1.4,5,2.3,7.9,2.3c4.3,0,7.1-1.6,7.1-6.2v-4c-2.1,1-5.3,1.6-8.1,1.6
					c-5.8,0-10.8-2.5-10.8-9.9V189.4z M754.3,184.2c-2-1-4.6-1.6-7.2-1.6c-4.5,0-8,2.1-8.1,6.8v9.8c0,5.5,3.4,7.3,7.8,7.3
					c2.8,0,5.7-0.7,7.5-1.5V184.2z"/>
				<path class="st5" d="M766.3,209.2v-40.8h3.7v40.8H766.3z"/>
				<path class="st5" d="M776.7,190c0-6.7,4.4-10.6,11.3-10.6c7.1,0,10.7,4.1,10.7,10.4v5.9h-18.4v4.8c0,4.4,2.8,6.3,7.1,6.3
					c3.1,0,5.8-0.8,8-2.3l2,1.9c-2.5,2.1-5.9,3.4-10.2,3.4c-6.8,0-10.4-3.7-10.4-9.5V190z M795.3,189.8c0-5.6-3.7-7.3-7.3-7.3
					c-3.9,0-7.6,1.9-7.6,7.4v3.4h14.9V189.8z"/>
				<path class="st5" d="M810,169.9c0,1.1-0.7,2.1-2,2.1c-1.2,0-2.1-0.9-2.1-2.1c0-1.3,0.9-2,2.1-2C809.1,167.8,810,168.7,810,169.9
					z M806.1,209.2V180h3.7v29.2H806.1z"/>
				<path class="st5" d="M817,191.3c0-7.8,4.6-11.9,11.4-11.9c3.7,0,6.6,1.4,8.8,3.6l-2.7,1.5c-1.8-1.3-3.9-2-6-2
					c-4.4,0-7.7,2.7-7.7,8.8v6.6c0,6,3.3,8.8,7.7,8.8c2.1,0,4.2-0.7,6-2l2.7,1.5c-2.2,2.2-5,3.6-8.8,3.6c-6.7,0-11.4-4-11.4-11.8
					V191.3z"/>
				<path class="st5" d="M848,181.2c2.3-1.2,5.2-1.7,7.8-1.7c5.6,0,11.1,2.4,11.1,9.9v19.8h-3.7v-19.6c0-5.1-3.4-7.1-7.9-7.1
					c-2.6,0-5.3,0.7-7.4,1.7v25.1h-3.7v-40.8h3.7L848,181.2z"/>
			</g>
		</g>
	</g>
</g>
</svg>
